<svg width="322" height="161" viewBox="0 0 322 161" fill="none" xmlns="http://www.w3.org/2000/svg">
<path d="M97.9785 14.4106C102.438 15.6283 106.788 17.3028 110.958 19.4253C112.285 20.1006 113.586 20.8182 114.859 21.5747L126.667 13.3408L147.104 34.1016L118.548 62.9717C114.602 54.168 107.762 46.9791 99.1621 42.6021C90.5371 38.2121 80.6658 36.9167 71.2002 38.9326C61.7346 40.9487 53.2479 46.1538 47.1602 53.6772C41.0725 61.2008 37.7529 70.5871 37.7563 80.2651C37.7599 89.9431 41.0862 99.3266 47.1792 106.846C53.2723 114.365 61.7629 119.564 71.23 121.573C80.6971 123.582 90.5671 122.28 99.189 117.884C107.786 113.5 114.623 106.305 118.562 97.4971L137.229 116.369L137.231 116.366L147.496 126.744L147.5 126.75L127.15 146.556L114.899 138.901C113.627 139.658 112.328 140.376 111.002 141.052C106.819 143.185 102.453 144.867 97.9785 146.088L94.5 160.5H67L63.6216 146.505C57.3799 144.962 51.4258 142.554 45.9194 139.381L33.6367 147.056L13.9995 127.805L21.4546 115.328C18.0942 109.719 15.5632 103.667 13.9302 97.3623L0 94V66.5L13.9307 63.1372C15.5635 56.8336 18.0929 50.7823 21.4526 45.1743L13.9995 32.7017L33.6367 13.4502L45.9146 21.1216C51.4221 17.9466 57.3779 15.5375 63.6216 13.9941L67 0H94.5L97.9785 14.4106Z" fill="#FA9700"/>
<path d="M91.5 63.5C99.232 63.5 105.5 69.768 105.5 77.5C105.5 81.0459 104.181 84.2832 102.008 86.75H102.026L101.889 86.8833C101.494 87.3202 101.072 87.732 100.626 88.1162L80.25 108L60.3203 88.0703C57.3672 85.5035 55.5 81.7199 55.5 77.5C55.5 69.768 61.768 63.5 69.5 63.5C73.9619 63.5 77.9363 65.5874 80.5 68.8389C83.0637 65.5874 87.0381 63.5 91.5 63.5Z" fill="#F68C00"/>
<path d="M137.229 116.369L137.231 116.366L147.496 126.744L147.5 126.75L127.15 146.556L114.899 138.901C113.627 139.658 112.328 140.376 111.002 141.052C106.819 143.185 102.453 144.867 97.9785 146.088L94.5 160.5H80.5V122.49C86.96 122.414 93.3598 120.856 99.189 117.884C107.786 113.5 114.623 106.305 118.562 97.4971L137.229 116.369Z" fill="#F68C00"/>
<path d="M97.9785 14.4106C102.438 15.6283 106.788 17.3028 110.958 19.4253C112.285 20.1006 113.586 20.8182 114.859 21.5747L126.667 13.3408L147.104 34.1016L118.548 62.9717C114.602 54.168 107.762 46.9791 99.1621 42.6021C93.3399 39.6387 86.9498 38.0858 80.5 38.0093V0H94.5L97.9785 14.4106Z" fill="#F68C00"/>
<path d="M91.4756 63.52C99.2076 63.52 105.476 69.788 105.476 77.52C105.476 81.0659 104.157 84.3033 101.983 86.77H102.002L101.865 86.9033C101.47 87.3402 101.048 87.7521 100.602 88.1362L80.2495 107.996L80.438 68.8125C80.4504 68.8281 80.4633 68.8433 80.4756 68.8589C83.0393 65.6074 87.0136 63.52 91.4756 63.52Z" fill="#F68C00"/>
<path d="M319.748 99.4999H306.896C303.96 99.4999 301.679 98.6868 300.053 97.0604C298.466 95.4341 297.673 93.1731 297.673 90.2774V78.3774C297.673 75.4421 298.466 73.1811 300.053 71.5944C301.679 69.9681 303.96 69.1549 306.896 69.1549H311.775C314.71 69.1549 316.991 69.9681 318.617 71.5944C320.243 73.1811 321.057 75.4421 321.057 78.3774V85.9339C321.057 86.6479 320.7 87.0049 319.986 87.0049H304.04C303.603 87.0049 303.385 87.2033 303.385 87.5999V90.1584C303.385 93.0541 304.833 94.5019 307.729 94.5019H319.748C320.462 94.5019 320.819 94.8589 320.819 95.5729V98.5479C320.819 99.1826 320.462 99.4999 319.748 99.4999ZM304.04 82.9589H314.69C315.087 82.9589 315.285 82.7606 315.285 82.3639V78.5559C315.285 77.0486 314.948 75.9578 314.274 75.2834C313.599 74.5694 312.508 74.2124 311.001 74.2124H307.729C306.221 74.2124 305.13 74.5694 304.456 75.2834C303.782 75.9578 303.445 77.0486 303.445 78.5559V82.3639C303.445 82.7606 303.643 82.9589 304.04 82.9589Z" fill="#0E0D29"/>
<path d="M283.098 99.4999H279.349C278.675 99.4999 278.338 99.1628 278.338 98.4884V70.1664C278.338 69.4921 278.675 69.1549 279.349 69.1549H283.098C283.772 69.1549 284.109 69.4921 284.109 70.1664V72.4274H284.347C284.744 71.4358 285.498 70.6424 286.608 70.0474C287.759 69.4524 289.028 69.1549 290.416 69.1549H292.618C293.292 69.1549 293.629 69.4921 293.629 70.1664V73.2604C293.629 74.0141 293.292 74.3314 292.618 74.2124H289.048C285.756 74.2124 284.109 76.0173 284.109 79.6269V98.4884C284.109 99.1628 283.772 99.4999 283.098 99.4999Z" fill="#0E0D29"/>
<path d="M258.839 99.4999H256.518C253.583 99.4999 251.302 98.6868 249.676 97.0604C248.089 95.4341 247.296 93.1731 247.296 90.2774V78.3774C247.296 75.4421 248.089 73.1811 249.676 71.5944C251.302 69.9681 253.583 69.1549 256.518 69.1549H269.846C270.56 69.1549 270.917 69.4921 270.917 70.1664V98.4884C270.917 99.1628 270.56 99.4999 269.846 99.4999H266.098C265.423 99.4999 265.086 99.1628 265.086 98.4884V96.3464H264.848C263.896 98.4488 261.893 99.4999 258.839 99.4999ZM265.086 89.3849V74.8074C265.086 74.4108 264.868 74.2124 264.432 74.2124H257.351C254.495 74.2124 253.067 75.6801 253.067 78.6154V90.0394C253.067 92.9748 254.495 94.4424 257.351 94.4424H260.207C263.46 94.4424 265.086 92.7566 265.086 89.3849Z" fill="#0E0D29"/>
<path d="M231.883 99.5H224.981C222.046 99.5 219.765 98.6868 218.138 97.0605C216.552 95.4342 215.758 93.1732 215.758 90.2775V70.464C215.758 67.5287 216.552 65.2677 218.138 63.681C219.765 62.0547 222.046 61.2415 224.981 61.2415H231.883C234.779 61.2415 237.039 62.0547 238.666 63.681C240.292 65.2677 241.105 67.5287 241.105 70.464V73.32C241.105 74.034 240.748 74.391 240.034 74.391H236.286C235.611 74.391 235.274 74.034 235.274 73.32V70.702C235.274 67.7666 233.846 66.299 230.99 66.299H225.814C222.958 66.299 221.53 67.7666 221.53 70.702V90.0395C221.53 92.9748 222.958 94.4425 225.814 94.4425H230.99C233.846 94.4425 235.274 92.9748 235.274 90.0395V87.4215C235.274 86.7075 235.611 86.3505 236.286 86.3505H240.034C240.748 86.3505 241.105 86.7075 241.105 87.4215V90.2775C241.105 93.1732 240.292 95.4342 238.666 97.0605C237.039 98.6868 234.779 99.5 231.883 99.5Z" fill="#0E0D29"/>
<path d="M200.588 99.4999H196.84C196.165 99.4999 195.828 99.1628 195.828 98.4884V70.1664C195.828 69.4921 196.165 69.1549 196.84 69.1549H200.588C201.262 69.1549 201.6 69.4921 201.6 70.1664V72.4274H201.838C202.234 71.4358 202.988 70.6424 204.099 70.0474C205.249 69.4524 206.518 69.1549 207.907 69.1549H210.108C210.782 69.1549 211.12 69.4921 211.12 70.1664V73.2604C211.12 74.0141 210.782 74.3314 210.108 74.2124H206.538C203.246 74.2124 201.6 76.0173 201.6 79.6269V98.4884C201.6 99.1628 201.262 99.4999 200.588 99.4999Z" fill="#0E0D29"/>
<path d="M176.329 99.4999H174.008C171.073 99.4999 168.792 98.6868 167.166 97.0604C165.579 95.4341 164.786 93.1731 164.786 90.2774V78.3774C164.786 75.4421 165.579 73.1811 167.166 71.5944C168.792 69.9681 171.073 69.1549 174.008 69.1549H187.336C188.05 69.1549 188.407 69.4921 188.407 70.1664V98.4884C188.407 99.1628 188.05 99.4999 187.336 99.4999H183.588C182.914 99.4999 182.576 99.1628 182.576 98.4884V96.3464H182.338C181.386 98.4488 179.383 99.4999 176.329 99.4999ZM182.576 89.3849V74.8074C182.576 74.4108 182.358 74.2124 181.922 74.2124H174.841C171.985 74.2124 170.557 75.6801 170.557 78.6154V90.0394C170.557 92.9748 171.985 94.4424 174.841 94.4424H177.697C180.95 94.4424 182.576 92.7566 182.576 89.3849Z" fill="#0E0D29"/>
<path d="M149.373 99.5H142.471C139.536 99.5 137.255 98.6868 135.629 97.0605C134.042 95.4341 133.249 93.1731 133.249 90.2775V70.464C133.249 67.5286 134.042 65.2676 135.629 63.681C137.255 62.0546 139.536 61.2415 142.471 61.2415H149.373C152.269 61.2415 154.53 62.0546 156.156 63.681C157.782 65.2676 158.596 67.5286 158.596 70.464V73.32C158.596 74.034 158.239 74.391 157.525 74.391H153.776C153.102 74.391 152.765 74.034 152.765 73.32V70.702C152.765 67.7666 151.337 66.299 148.481 66.299H143.304C140.448 66.299 139.02 67.7666 139.02 70.702V90.0395C139.02 92.9748 140.448 94.4425 143.304 94.4425H148.481C151.337 94.4425 152.765 92.9748 152.765 90.0395V87.4215C152.765 86.7075 153.102 86.3505 153.776 86.3505H157.525C158.239 86.3505 158.596 86.7075 158.596 87.4215V90.2775C158.596 93.1731 157.782 95.4341 156.156 97.0605C154.53 98.6868 152.269 99.5 149.373 99.5Z" fill="#0E0D29"/>
</svg>
