<svg width="318" height="116" viewBox="0 0 318 116" fill="none" xmlns="http://www.w3.org/2000/svg">
<path d="M135.74 69.8939L143.429 46.9216H147.385L155.075 69.8939H152.123L144.929 48.5807H145.822L138.691 69.8939H135.74ZM139.441 64.5178V61.8536H151.374V64.5178H139.441Z" fill="#0E8F8B"/>
<path d="M170.837 69.8939V61.2634C170.837 60.4445 170.762 59.6574 170.613 58.9023C170.475 58.1472 170.225 57.4719 169.863 56.8763C169.512 56.2701 169.034 55.7915 168.428 55.4405C167.832 55.0896 167.077 54.9141 166.162 54.9141C165.45 54.9141 164.801 55.0364 164.216 55.281C163.642 55.515 163.147 55.8766 162.732 56.3658C162.318 56.855 161.993 57.4719 161.759 58.2164C161.536 58.9502 161.424 59.817 161.424 60.8167L159.558 60.2424C159.558 58.5726 159.856 57.1422 160.451 55.951C161.057 54.7492 161.903 53.8293 162.988 53.1912C164.083 52.5424 165.37 52.218 166.848 52.218C167.965 52.218 168.917 52.3935 169.704 52.7445C170.491 53.0954 171.145 53.5634 171.666 54.1483C172.187 54.7226 172.597 55.3714 172.895 56.0946C173.192 56.8072 173.4 57.5357 173.517 58.2802C173.644 59.014 173.708 59.7106 173.708 60.37V69.8939H170.837ZM158.553 69.8939V52.6647H161.105V57.2751H161.424V69.8939H158.553Z" fill="#0E8F8B"/>
<path d="M183.391 70.3725C182.104 70.3725 181.025 70.1386 180.153 69.6706C179.291 69.192 178.637 68.5645 178.191 67.7881C177.755 67.0118 177.537 66.1609 177.537 65.2357C177.537 64.3317 177.707 63.55 178.047 62.8906C178.398 62.2206 178.887 61.6675 179.515 61.2315C180.142 60.7848 180.892 60.4338 181.764 60.1786C182.583 59.9552 183.498 59.7638 184.508 59.6043C185.529 59.4341 186.561 59.2799 187.603 59.1416C188.645 59.0034 189.618 58.8704 190.522 58.7428L189.501 59.3331C189.533 57.8016 189.225 56.6689 188.576 55.9351C187.938 55.2012 186.832 54.8343 185.258 54.8343C184.216 54.8343 183.301 55.0736 182.514 55.5522C181.738 56.0202 181.19 56.7859 180.871 57.8494L178.175 57.0358C178.589 55.5256 179.392 54.3398 180.584 53.4783C181.775 52.6168 183.343 52.1861 185.29 52.1861C186.853 52.1861 188.193 52.468 189.31 53.0316C190.437 53.5847 191.246 54.4249 191.735 55.5522C191.979 56.084 192.134 56.6636 192.197 57.2911C192.261 57.9079 192.293 58.5567 192.293 59.2373V69.8939H189.773V65.7621L190.363 66.145C189.714 67.5382 188.805 68.5911 187.635 69.3037C186.476 70.0162 185.061 70.3725 183.391 70.3725ZM183.822 67.9955C184.843 67.9955 185.726 67.8147 186.47 67.4531C187.225 67.0809 187.832 66.597 188.289 66.0014C188.746 65.3952 189.044 64.7358 189.182 64.0232C189.342 63.4915 189.427 62.9012 189.438 62.2525C189.459 61.5931 189.469 61.0879 189.469 60.7369L190.459 61.1677C189.533 61.2953 188.624 61.4176 187.731 61.5346C186.837 61.6516 185.992 61.7792 185.194 61.9174C184.396 62.0451 183.678 62.1993 183.04 62.3801C182.572 62.529 182.131 62.7204 181.716 62.9544C181.312 63.1884 180.982 63.4915 180.727 63.8637C180.483 64.2253 180.36 64.6773 180.36 65.2197C180.36 65.6877 180.477 66.1344 180.711 66.5598C180.956 66.9852 181.328 67.3308 181.828 67.5967C182.338 67.8626 183.003 67.9955 183.822 67.9955Z" fill="#0E8F8B"/>
<path d="M217.674 69.8939L217.69 58.8704C217.69 57.5835 217.345 56.5785 216.653 55.8553C215.973 55.1215 215.085 54.7546 213.989 54.7546C213.351 54.7546 212.745 54.9034 212.171 55.2012C211.596 55.4884 211.128 55.9457 210.767 56.5732C210.405 57.19 210.224 57.9824 210.224 58.9502L208.725 58.344C208.703 57.1209 208.953 56.0521 209.474 55.1374C210.006 54.2121 210.729 53.4943 211.644 52.9838C212.559 52.4733 213.59 52.218 214.739 52.218C216.536 52.218 217.951 52.7657 218.982 53.8612C220.014 54.946 220.53 56.4083 220.53 58.2483L220.514 69.8939H217.674ZM197.063 69.8939V52.6647H199.6V57.2751H199.919V69.8939H197.063ZM207.385 69.8939L207.401 58.9821C207.401 57.6633 207.06 56.6317 206.38 55.8872C205.699 55.1321 204.795 54.7546 203.668 54.7546C202.551 54.7546 201.647 55.1374 200.956 55.9032C200.264 56.6689 199.919 57.6846 199.919 58.9502L198.419 58.0568C198.419 56.9401 198.685 55.9404 199.217 55.0577C199.748 54.1749 200.472 53.4836 201.386 52.9838C202.301 52.4733 203.338 52.218 204.497 52.218C205.656 52.218 206.667 52.4626 207.528 52.9519C208.39 53.4411 209.054 54.143 209.522 55.0577C209.99 55.9617 210.224 57.0411 210.224 58.2961L210.208 69.8939H207.385Z" fill="#0E8F8B"/>
<path d="M237.591 69.8939V61.2634C237.591 60.4445 237.517 59.6574 237.368 58.9023C237.23 58.1472 236.98 57.4719 236.618 56.8763C236.267 56.2701 235.788 55.7915 235.182 55.4405C234.587 55.0896 233.832 54.9141 232.917 54.9141C232.204 54.9141 231.556 55.0364 230.971 55.281C230.396 55.515 229.902 55.8766 229.487 56.3658C229.072 56.855 228.748 57.4719 228.514 58.2164C228.291 58.9502 228.179 59.817 228.179 60.8167L226.312 60.2424C226.312 58.5726 226.61 57.1422 227.206 55.951C227.812 54.7492 228.657 53.8293 229.742 53.1912C230.838 52.5424 232.125 52.218 233.603 52.218C234.72 52.218 235.671 52.3935 236.458 52.7445C237.245 53.0954 237.9 53.5634 238.421 54.1483C238.942 54.7226 239.351 55.3714 239.649 56.0946C239.947 56.8072 240.154 57.5357 240.271 58.2802C240.399 59.014 240.463 59.7106 240.463 60.37V69.8939H237.591ZM225.307 69.8939V52.6647H227.86V57.2751H228.179V69.8939H225.307Z" fill="#0E8F8B"/>
<path d="M253.257 70.3725C251.491 70.3725 249.933 69.995 248.582 69.2399C247.242 68.4741 246.19 67.4265 245.424 66.0971C244.669 64.7571 244.291 63.2256 244.291 61.5027C244.291 59.6202 244.663 57.9824 245.408 56.5891C246.152 55.1959 247.179 54.1164 248.487 53.3507C249.795 52.5743 251.3 52.1861 253.001 52.1861C254.809 52.1861 256.346 52.6115 257.612 53.4624C258.877 54.3132 259.813 55.5097 260.42 57.0518C261.026 58.5939 261.239 60.4072 261.058 62.4918H256.766V60.8965C256.766 59.1416 256.485 57.8813 255.921 57.1156C255.368 56.3392 254.459 55.951 253.193 55.951C251.715 55.951 250.624 56.403 249.923 57.307C249.231 58.2004 248.886 59.5245 248.886 61.2793C248.886 62.8853 249.231 64.1296 249.923 65.0123C250.624 65.8844 251.651 66.3205 253.001 66.3205C253.852 66.3205 254.581 66.1344 255.187 65.7621C255.793 65.3899 256.256 64.8528 256.575 64.1509L260.914 65.3952C260.265 66.9692 259.239 68.1923 257.835 69.0644C256.442 69.9365 254.916 70.3725 253.257 70.3725ZM247.546 62.4918V59.2692H258.968V62.4918H247.546Z" fill="#85C2C3"/>
<path d="M269.772 70.3725C268.539 70.3725 267.491 70.1386 266.63 69.6706C265.779 69.192 265.13 68.5592 264.683 67.7722C264.247 66.9745 264.029 66.0971 264.029 65.14C264.029 64.3423 264.152 63.6138 264.396 62.9544C264.641 62.295 265.034 61.7154 265.577 61.2155C266.13 60.705 266.869 60.2796 267.794 59.9393C268.432 59.7053 269.193 59.4979 270.075 59.3171C270.958 59.1363 271.958 58.9661 273.075 58.8066C274.191 58.6364 275.42 58.4503 276.76 58.2483L275.196 59.1097C275.196 58.0887 274.952 57.3389 274.462 56.8603C273.973 56.3818 273.154 56.1425 272.006 56.1425C271.368 56.1425 270.703 56.2967 270.012 56.6051C269.32 56.9135 268.836 57.4612 268.56 58.2483L264.635 57.0039C265.071 55.5788 265.89 54.4195 267.092 53.5262C268.294 52.6328 269.932 52.1861 272.006 52.1861C273.527 52.1861 274.877 52.4201 276.058 52.8881C277.238 53.356 278.132 54.1643 278.738 55.3129C279.078 55.951 279.28 56.5891 279.344 57.2273C279.408 57.8654 279.44 58.578 279.44 59.365V69.8939H275.643V66.3524L276.185 67.0862C275.345 68.2455 274.436 69.0857 273.457 69.6068C272.49 70.1173 271.261 70.3725 269.772 70.3725ZM270.698 66.9586C271.495 66.9586 272.165 66.8203 272.708 66.5438C273.261 66.2567 273.697 65.9323 274.016 65.5707C274.346 65.2091 274.569 64.906 274.686 64.6614C274.909 64.1934 275.037 63.651 275.069 63.0342C275.111 62.4067 275.133 61.8855 275.133 61.4708L276.409 61.7898C275.122 62.0025 274.08 62.1833 273.282 62.3322C272.484 62.4705 271.841 62.5981 271.352 62.7151C270.862 62.8321 270.432 62.9597 270.059 63.098C269.634 63.2681 269.288 63.4542 269.023 63.6563C268.767 63.8478 268.576 64.0605 268.448 64.2944C268.331 64.5284 268.273 64.789 268.273 65.0761C268.273 65.4696 268.368 65.81 268.56 66.0971C268.762 66.3736 269.044 66.5864 269.405 66.7352C269.767 66.8841 270.198 66.9586 270.698 66.9586Z" fill="#85C2C3"/>
<path d="M290.958 70.3725C288.789 70.3725 287.034 69.8833 285.694 68.9049C284.364 67.9158 283.556 66.5225 283.269 64.7252L287.704 64.0551C287.885 64.8634 288.283 65.4962 288.9 65.9536C289.528 66.4109 290.32 66.6395 291.277 66.6395C292.064 66.6395 292.67 66.4906 293.096 66.1928C293.521 65.8844 293.734 65.459 293.734 64.9166C293.734 64.5763 293.649 64.3051 293.479 64.103C293.309 63.8903 292.926 63.6829 292.33 63.4808C291.745 63.2788 290.831 63.0129 289.586 62.6832C288.182 62.3216 287.06 61.9174 286.22 61.4708C285.38 61.0241 284.774 60.4923 284.401 59.8755C284.029 59.248 283.843 58.4929 283.843 57.6101C283.843 56.5041 284.125 55.5469 284.689 54.7386C285.252 53.9197 286.045 53.2922 287.066 52.8561C288.097 52.4095 289.31 52.1861 290.703 52.1861C292.054 52.1861 293.25 52.3935 294.292 52.8083C295.335 53.2231 296.175 53.8133 296.813 54.5791C297.462 55.3448 297.86 56.2488 298.009 57.2911L293.574 58.0887C293.5 57.4506 293.223 56.9454 292.745 56.5732C292.266 56.201 291.618 55.9829 290.799 55.9191C290.001 55.8659 289.358 55.9723 288.868 56.2382C288.39 56.5041 288.15 56.8869 288.15 57.3868C288.15 57.6846 288.251 57.9345 288.454 58.1366C288.666 58.3387 289.097 58.546 289.746 58.7588C290.405 58.9715 291.405 59.248 292.745 59.5883C294.053 59.9286 295.101 60.3275 295.888 60.7848C296.685 61.2315 297.265 61.7739 297.626 62.412C297.988 63.0395 298.169 63.7999 298.169 64.6933C298.169 66.4587 297.531 67.8466 296.255 68.857C294.978 69.8674 293.213 70.3725 290.958 70.3725Z" fill="#85C2C3"/>
<path d="M303.891 77.5514L307.209 68.4263L307.273 71.1064L299.775 52.6647H304.274L309.315 65.7143H308.294L313.303 52.6647H317.643L307.911 77.5514H303.891Z" fill="#85C2C3"/>
<path d="M76.2749 70.5843C76.2749 52.2513 91.1368 37.3894 109.47 37.3894C112.613 37.3894 115.16 39.9372 115.16 43.08V70.791C115.16 74.095 112.482 76.7734 109.178 76.7734H76.2749V70.5843Z" fill="#E4EBEC"/>
<path d="M38.9043 104.482C38.1814 66.233 72.4353 36.2539 109.698 37.4211V37.4231C90.9614 41.8502 76.7738 59.9797 76.7735 80.5334C76.7735 81.2939 76.7937 82.0489 76.832 82.7971H76.7949V110.724L76.793 110.715C76.562 114.386 75.6582 115.066 72.8047 115.201H43.3906C41.0579 115.09 39.8621 114.616 39.377 112.441C39.0656 109.831 38.9043 107.175 38.9043 104.482Z" fill="#B5D7D7"/>
<path d="M39.8825 43.724C39.8825 62.5271 24.6396 77.7701 5.83646 77.7701C2.61307 77.7701 0 75.157 0 71.9336V43.3714C0 40.0675 2.6784 37.3891 5.98237 37.3891H39.8825V43.724Z" fill="#09817D"/>
<path d="M77.261 10.7178C77.9839 48.9654 43.7316 78.9437 6.46998 77.7783V77.6338C25.2297 73.0176 39.3827 54.8945 39.3831 34.3691C39.3831 33.7101 39.366 33.0552 39.3372 32.4053H39.3733V4.4834L39.3743 4.4873C39.6052 0.816424 40.5088 0.135703 43.3626 0H72.7756C75.105 0.110768 76.3008 0.584382 76.7874 2.75098C77.0995 5.36301 77.261 8.02178 77.261 10.7178Z" fill="#0E8F8B"/>
</svg>
